<?xml version="1.0" encoding="UTF-8"?>
<svg version="1.1" xmlns="http://www.w3.org/2000/svg" width="276" height="229">
<path d="M0 0 C91.08 0 182.16 0 276 0 C276 75.57 276 151.14 276 229 C184.92 229 93.84 229 0 229 C0 153.43 0 77.86 0 0 Z " fill="#172B36" transform="translate(0,0)"/>
<path d="M0 0 C3.12620517 31.03226228 3.12620517 31.03226228 -3.83203125 40.08984375 C-7.52204168 43.98735528 -11.5755154 47.32141882 -15.91748047 50.46728516 C-20.34421994 53.72532389 -23.86753471 57.90708136 -27.5 62 C-32.7750752 67.94374671 -38.45752447 73.42683047 -44.14816284 78.96861267 C-47.53605248 82.27545241 -50.9111191 85.59510917 -54.28198051 88.91929531 C-56.83848191 91.43911184 -59.40120101 93.95190118 -61.97851562 96.45043945 C-64.48296659 98.87886659 -66.96995 101.32397791 -69.44574356 103.78160286 C-70.84723486 105.16391417 -72.26628909 106.52834534 -73.68551636 107.8924408 C-74.95276047 109.15889183 -74.95276047 109.15889183 -76.24560547 110.45092773 C-76.99663544 111.18641342 -77.74766541 111.92189911 -78.52145386 112.67967224 C-80.29612976 114.97532729 -80.29612976 114.97532729 -79.86599731 118.08094788 C-78.56333992 122.47186778 -75.84751696 125.68898512 -73.0625 129.23242188 C-71.14914335 131.80082898 -69.99015092 133.39204298 -70.04296875 136.65234375 C-71.07131289 139.17493489 -72.19848044 140.90499291 -73.9375 143 C-74.55625 143.76183594 -75.175 144.52367187 -75.8125 145.30859375 C-76.534375 146.19675781 -77.25625 147.08492187 -78 148 C-79.82568005 150.34409144 -81.63162998 152.70313002 -83.4375 155.0625 C-84.31099471 156.19937491 -85.18467625 157.33610631 -86.05859375 158.47265625 C-86.69925781 159.30667969 -87.33992188 160.14070312 -88 161 C-91.74822927 157.40599126 -94.94813409 153.64927885 -98.0625 149.5 C-101.60307914 144.81986793 -101.60307914 144.81986793 -105.30859375 140.26953125 C-107 138 -107 138 -107 135.1875 C-105.75146508 131.20779494 -103.99388713 127.65391409 -102 124 C-101.34 124 -100.68 124 -100 124 C-99.07352094 120.90977616 -98.65318282 118.22106453 -99 115 C-101.15505202 111.59811795 -104.00258526 109.0988707 -107 106.4375 C-108.52315714 105.02202774 -110.04401141 103.60407318 -111.5625 102.18359375 C-112.31337891 101.49056152 -113.06425781 100.7975293 -113.83789062 100.08349609 C-116.52457517 97.49449814 -118.9324476 94.72768547 -121.3515625 91.89086914 C-123.92086278 88.9437082 -126.70499104 86.23096896 -129.5 83.5 C-132.90942275 80.13284679 -136.28436911 76.79212162 -139.375 73.125 C-143.46195724 68.29869372 -148.03232129 63.94384216 -152.52197266 59.49755859 C-156.22935284 55.81231753 -159.83977184 52.12257205 -163.12182617 48.04614258 C-165.02693346 45.86466918 -165.02693346 45.86466918 -167.69946289 43.84936523 C-176.01588192 36.88804178 -176.01588192 36.88804178 -176.89501953 30.91943359 C-177.21188324 26.36832056 -176.96509505 21.85924981 -176.6875 17.3125 C-176.63220307 15.72478091 -176.58203405 14.13687455 -176.53710938 12.54882812 C-176.4170577 8.69451437 -176.22804712 4.84937156 -176 1 C-172.90186427 2.37726493 -170.80814556 3.95175186 -168.43286133 6.36027527 C-167.39834335 7.40150795 -167.39834335 7.40150795 -166.34292603 8.46377563 C-165.22378311 9.60548721 -165.22378311 9.60548721 -164.08203125 10.77026367 C-163.28807953 11.5719548 -162.49412781 12.37364594 -161.67611694 13.19963074 C-159.95304793 14.94035317 -158.2321878 16.68326421 -156.51327515 18.42809105 C-153.79559035 21.18512323 -151.07050504 23.93462819 -148.34301758 26.68196106 C-140.58934404 34.49375929 -132.84528496 42.31498252 -125.11621094 50.15112305 C-120.38949042 54.94314255 -115.64978287 59.72198893 -110.90267944 64.49382973 C-109.0926545 66.3181603 -107.28732386 68.14716039 -105.48672485 69.98079491 C-102.97503765 72.53793258 -100.44851362 75.07946279 -97.91796875 77.61791992 C-97.17187347 78.38513367 -96.4257782 79.15234741 -95.65707397 79.94281006 C-94.96739532 80.62850571 -94.27771667 81.31420135 -93.56713867 82.02067566 C-92.67341805 82.92520619 -92.67341805 82.92520619 -91.76164246 83.84801006 C-90.07170792 85.2009726 -90.07170792 85.2009726 -88.00558662 84.89303398 C-85.59937428 83.8216121 -84.19895446 82.56248875 -82.34347534 80.69078064 C-81.63407806 79.98261703 -80.92468079 79.27445343 -80.19378662 78.54483032 C-79.42584778 77.76296356 -78.65790894 76.9810968 -77.86669922 76.17553711 C-77.05002777 75.35609116 -76.23335632 74.5366452 -75.39193726 73.69236755 C-72.68930944 70.97743604 -69.99723073 68.25227372 -67.3046875 65.52734375 C-65.43268776 63.64467307 -63.56001514 61.76269949 -61.68630981 59.88172913 C-56.24622592 54.41752038 -50.81751465 48.942091 -45.38978577 43.46561432 C-38.47472182 36.48970494 -31.55401861 29.51941443 -24.62426388 22.5580979 C-21.38704832 19.30529893 -18.15832686 16.04420545 -14.93112183 12.78147888 C-13.2458466 11.0857488 -11.56032356 9.39026496 -9.87451172 7.69506836 C-9.10252441 6.91117737 -8.33053711 6.12728638 -7.53515625 5.31964111 C-6.83139862 4.61429733 -6.12764099 3.90895355 -5.40255737 3.18223572 C-4.79015135 2.56408965 -4.17774532 1.94594358 -3.54678154 1.30906582 C-2 0 -2 0 0 0 Z " fill="#FAFBFB" transform="translate(226,30)"/>
<path d="M0 0 C1.27441675 0.92346023 2.54438406 1.85306247 3.8125 2.78515625 C4.52019531 3.30215088 5.22789063 3.81914551 5.95703125 4.35180664 C8.4824608 6.38923194 10.39055216 8.68406174 12.421875 11.1953125 C14.79903792 13.91375128 17.51436747 16.18949338 20.265625 18.51953125 C23.97384788 21.68488366 23.97384788 21.68488366 24.24050903 24.89797974 C24.2338472 26.75663162 24.2338472 26.75663162 24.22705078 28.65283203 C24.22734283 29.33587402 24.22763489 30.01891602 24.22793579 30.72265625 C24.22654039 32.98450341 24.21096967 35.24602276 24.1953125 37.5078125 C24.19158311 39.07436951 24.18873579 40.64092884 24.18673706 42.20748901 C24.17909476 46.33394797 24.15944124 50.46026651 24.1373291 54.58666992 C24.11688346 58.79604187 24.1077381 63.00543648 24.09765625 67.21484375 C24.07619583 75.476627 24.04205279 83.73829604 24 92 C23.34 92 22.68 92 22 92 C20.7734375 90.56640625 20.7734375 90.56640625 19.375 88.5625 C16.47939695 84.56783594 13.33555241 80.91015036 10.03125 77.25 C7.43490044 74.37404356 4.89242013 71.45280124 2.34765625 68.53125 C1.58736713 67.66738526 0.81372656 66.81372656 0 66 C-0.09413687 63.94443339 -0.11742998 61.88559819 -0.11352539 59.82788086 C-0.11367142 59.18399918 -0.11381744 58.54011749 -0.1139679 57.87672424 C-0.11326885 55.73939697 -0.10547691 53.60215587 -0.09765625 51.46484375 C-0.09579204 49.98653715 -0.09436815 48.50822993 -0.09336853 47.02992249 C-0.08954359 43.13201198 -0.07971352 39.23413851 -0.06866455 35.33624268 C-0.05844992 31.36153667 -0.0538708 27.38682471 -0.04882812 23.41210938 C-0.03809122 15.608056 -0.02101509 7.80403318 0 0 Z " fill="#F7F8F8" transform="translate(50,100)"/>
<path d="M0 0 C0.20953443 7.91078255 0.36893815 15.82038594 0.46630955 23.73326683 C0.51307071 27.40863157 0.57636733 31.0820837 0.67895508 34.75634766 C0.77753459 38.30973378 0.83071571 41.86129413 0.85389519 45.41594315 C0.87835617 47.41596064 0.94849366 49.41525374 1.01966858 51.41415405 C1.02348132 58.37204392 0.40096771 62.37198145 -4.32446289 67.65087891 C-5.86400583 69.12071523 -7.42165389 70.57191218 -9 72 C-10.24653082 73.35927797 -11.47922737 74.73160381 -12.6875 76.125 C-13.24179688 76.75664062 -13.79609375 77.38828125 -14.3671875 78.0390625 C-16.63764479 80.76578394 -18.7003623 83.62791341 -20.73828125 86.53125 C-21.15464844 87.0159375 -21.57101563 87.500625 -22 88 C-22.66 88 -23.32 88 -24 88 C-24.16254255 79.38535019 -24.28674381 70.77134605 -24.3626852 62.15553951 C-24.3991431 58.15432831 -24.44855124 54.15416981 -24.52807617 50.15356445 C-24.60441079 46.2890503 -24.64604625 42.4255453 -24.6641407 38.56033516 C-24.67702647 37.08947429 -24.70219132 35.61866569 -24.7401104 34.14823723 C-25.02513145 22.63253076 -25.02513145 22.63253076 -22.47071838 18.56460571 C-20.73585256 16.81000133 -19.02686397 15.39760187 -17 14 C-16.28972656 13.3503125 -15.57945312 12.700625 -14.84765625 12.03125 C-14.25855469 11.5259375 -13.66945312 11.020625 -13.0625 10.5 C-9.53411771 7.4609051 -6.04429904 4.38191011 -2.56640625 1.28515625 C-1 0 -1 0 0 0 Z " fill="#F8FAF9" transform="translate(226,103)"/>
<path d="M0 0 C0 0.66 0 1.32 0 2 C0.7425 2.20625 1.485 2.4125 2.25 2.625 C5.8424014 4.4212007 7.08309537 6.52117309 9 10 C9 10.99 9 11.98 9 13 C6.69 13.66 4.38 14.32 2 15 C1.51510163 20.13725982 1.51510163 20.13725982 4 24.4375 C4.66 24.953125 5.32 25.46875 6 26 C4.40069566 30.04135587 1.51339591 32.67907152 -1.5625 35.625 C-5.22714016 38.96402902 -5.22714016 38.96402902 -8 43 C-14.14821989 42.16293085 -18.14048396 36.41329406 -22.3125 32.25 C-23.25673828 31.3425 -24.20097656 30.435 -25.17382812 29.5 C-26.06134766 28.61828125 -26.94886719 27.7365625 -27.86328125 26.828125 C-28.68094971 26.0227832 -29.49861816 25.21744141 -30.34106445 24.38769531 C-32 22 -32 22 -31.8449707 19.35009766 C-28.966223 11.34350263 -21.90120937 2.81819539 -14.5 -1.4375 C-9.21252718 -2.62718138 -4.88311829 -2.3675725 0 0 Z " fill="#F6F7F7" transform="translate(148,51)"/>
<path d="M0 0 C0 3 0 3 -1.42041016 4.49243164 C-2.07831543 5.02215576 -2.7362207 5.55187988 -3.4140625 6.09765625 C-9.26565496 10.99891296 -14.49429763 16.48074709 -19.81640625 21.94335938 C-20.58597656 22.72388672 -21.35554688 23.50441406 -22.1484375 24.30859375 C-22.84114746 25.01814209 -23.53385742 25.72769043 -24.24755859 26.45874023 C-26 28 -26 28 -28 28 C-28.226875 28.556875 -28.45375 29.11375 -28.6875 29.6875 C-30.37474378 32.66026285 -32.55295524 34.60301082 -35 37 C-36.06791989 38.0746737 -37.13381042 39.15136665 -38.19799805 40.22973633 C-41.34645689 43.41361799 -44.50086521 46.59153006 -47.6574707 49.76733398 C-49.01796609 51.13797377 -50.37667377 52.5103902 -51.73364258 53.88452148 C-53.69669009 55.8716961 -55.6660109 57.85245706 -57.63671875 59.83203125 C-58.24505051 60.45068558 -58.85338226 61.0693399 -59.48014832 61.70674133 C-60.9492888 63.1762751 -62.47015287 64.5937742 -64 66 C-64.66 66 -65.32 66 -66 66 C-66.26425781 66.60328125 -66.52851563 67.2065625 -66.80078125 67.828125 C-68.05755074 70.1042287 -69.15440162 71.16818433 -71.1875 72.75 C-74.70877103 75.61836869 -77.49614888 78.81975695 -80.32421875 82.36328125 C-82.2328756 84.22744726 -83.44215994 84.46325886 -86 85 C-81.62034156 79.76438997 -77.01719102 74.86882306 -72.19042969 70.04516602 C-71.43198761 69.28336533 -70.67354553 68.52156464 -69.89212036 67.73667908 C-67.40466544 65.23978613 -64.91351374 62.74662374 -62.421875 60.25390625 C-60.68638871 58.51520519 -58.95097722 56.77642946 -57.21563721 55.0375824 C-53.58954462 51.4055185 -49.96140751 47.77551102 -46.33203125 44.14672852 C-41.67055924 39.48535866 -37.01603359 34.8171177 -32.36320114 30.1471262 C-28.78767639 26.56052048 -25.20765408 22.97843084 -21.62631989 19.39762688 C-19.90703183 17.67715523 -18.18937319 15.95505375 -16.47335052 14.23132515 C-14.08425373 11.83249636 -11.68898392 9.44000848 -9.29199219 7.04907227 C-8.5792514 6.33071198 -7.86651062 5.61235168 -7.13217163 4.8722229 C-6.48178925 4.226035 -5.83140686 3.57984711 -5.16131592 2.91407776 C-4.59575359 2.34797067 -4.03019127 1.78186357 -3.44749069 1.19860172 C-2 0 -2 0 0 0 Z " fill="#CAD0D3" transform="translate(226,30)"/>
<path d="M0 0 C0.99 0 1.98 0 3 0 C2.67 22.11 2.34 44.22 2 67 C1.34 67 0.68 67 0 67 C0 44.89 0 22.78 0 0 Z " fill="#5B6A76" transform="translate(48,98)"/>
<path d="M0 0 C0.99 0 1.98 0 3 0 C2.67 11.55 2.34 23.1 2 35 C1.34 35 0.68 35 0 35 C0 23.45 0 11.9 0 0 Z " fill="#5B6B76" transform="translate(48,29)"/>
<path d="M0 0 C0 3 0 3 -1.46875 4.80932617 C-2.1390625 5.46392822 -2.809375 6.11853027 -3.5 6.79296875 C-4.221875 7.50517578 -4.94375 8.21738281 -5.6875 8.95117188 C-6.450625 9.68916016 -7.21375 10.42714844 -8 11.1875 C-9.1446875 12.31188477 -9.1446875 12.31188477 -10.3125 13.45898438 C-12.20180839 15.31286823 -14.09775206 17.15941069 -16 19 C-16.66 18.67 -17.32 18.34 -18 18 C-14.63695446 13.74673652 -11.18131445 10.48442871 -7 7 C-6.06039966 5.93649632 -5.14290498 4.85300027 -4.25 3.75 C-2 1 -2 1 0 0 Z " fill="#3D4D55" transform="translate(205,85)"/>
<path d="M0 0 C0 0.66 0 1.32 0 2 C-4.62 2 -9.24 2 -14 2 C-9.37696767 -2.62303233 -5.95045602 -2.10016095 0 0 Z " fill="#22353F" transform="translate(100,227)"/>
<path d="M0 0 C0.99 0 1.98 0 3 0 C3 3.3 3 6.6 3 10 C2.34 10 1.68 10 1 10 C0.63883954 8.5225254 0.28624952 7.04295325 -0.0625 5.5625 C-0.25972656 4.73878906 -0.45695312 3.91507813 -0.66015625 3.06640625 C-0.82837891 2.04353516 -0.82837891 2.04353516 -1 1 C-0.67 0.67 -0.34 0.34 0 0 Z " fill="#22353E" transform="translate(273,32)"/>
<path d="M0 0 C0.33 0.99 0.66 1.98 1 3 C-1.31 5.31 -3.62 7.62 -6 10 C-6.99 9.67 -7.98 9.34 -9 9 C-8.34 9 -7.68 9 -7 9 C-6.6596875 8.1646875 -6.6596875 8.1646875 -6.3125 7.3125 C-4.64103234 4.36753316 -2.44723648 2.31843456 0 0 Z " fill="#45555E" transform="translate(147,85)"/>
<path d="M0 0 C0.66 0.33 1.32 0.66 2 1 C-0.64 3.97 -3.28 6.94 -6 10 C-6.66 9.67 -7.32 9.34 -8 9 C-6.85459775 7.68712379 -5.70866567 6.37470979 -4.5625 5.0625 C-3.92441406 4.33160156 -3.28632812 3.60070313 -2.62890625 2.84765625 C-1.77458541 1.87860647 -0.91348825 0.91348825 0 0 Z " fill="#D3D8DB" transform="translate(129,53)"/>
<path d="M0 0 C0.33 0 0.66 0 1 0 C1 2.31 1 4.62 1 7 C-0.65 6.67 -2.3 6.34 -4 6 C-3.34 4.68 -2.68 3.36 -2 2 C-1.34 2 -0.68 2 0 2 C0 1.34 0 0.68 0 0 Z " fill="#22343F" transform="translate(275,54)"/>
<path d="M0 0 C1.2065625 0.0309375 1.2065625 0.0309375 2.4375 0.0625 C2.1075 2.0425 1.7775 4.0225 1.4375 6.0625 C-0.2125 4.4125 -1.8625 2.7625 -3.5625 1.0625 C-2.5625 0.0625 -2.5625 0.0625 0 0 Z " fill="#2C3E49" transform="translate(72.5625,46.9375)"/>
<path d="M0 0 C-0.33 1.65 -0.66 3.3 -1 5 C-2.65 3.35 -4.3 1.7 -6 0 C-3 -1 -3 -1 0 0 Z " fill="#2F414C" transform="translate(84,57)"/>
</svg>
